<svg xmlns="http://www.w3.org/2000/svg" width="256" height="256" viewBox="0 0 256 256">
  <defs>
    <linearGradient id="bodyGrad" x1="0" y1="0" x2="1" y2="1">
      <stop offset="0%" stop-color="#fafafa"/>
      <stop offset="100%" stop-color="#eeeeee"/>
    </linearGradient>
    <linearGradient id="screenGrad" x1="0" y1="0" x2="0" y2="1">
      <stop offset="0%" stop-color="#b9c1a4"/>
      <stop offset="100%" stop-color="#9ea88c"/>
    </linearGradient>
    <linearGradient id="greenGrad" x1="0" y1="0" x2="1" y2="1">
      <stop offset="0%" stop-color="#c8df2d"/>
      <stop offset="100%" stop-color="#a7c51e"/>
    </linearGradient>
  </defs>
  <rect x="55" y="7" width="146" height="242" rx="13" fill="url(#bodyGrad)" stroke="#a9a9a9" stroke-width="2.2"/>
  <line x1="55" y1="151" x2="201" y2="151" stroke="#b8b8b8" stroke-width="1.8"/>
  <rect x="102" y="34" width="59" height="28" rx="2.8" fill="#c7c7c7"/>
  <rect x="106" y="38" width="51" height="20" rx="1.5" fill="url(#screenGrad)" stroke="#62675b" stroke-width="1.5"/>
  <g fill="#62675b">
    <rect x="111" y="50" width="3" height="5" rx="0.8"/>
    <rect x="116" y="46" width="3" height="9" rx="0.8"/>
    <rect x="121" y="42" width="3" height="13" rx="0.8"/>
    <rect x="126" y="39" width="3" height="16" rx="0.8"/>
    <rect x="131" y="44" width="3" height="11" rx="0.8"/>
  </g>
  <text x="139" y="53" font-family="Arial, Helvetica, sans-serif" font-size="9.5" font-weight="700" fill="#62675b">kW</text>
  <circle cx="177" cy="31" r="16" fill="#d6cec0" stroke="#969696" stroke-width="2"/>
  <circle cx="177" cy="31" r="8.5" fill="#606060" stroke="#ececec" stroke-width="1.6"/>
  <circle cx="171" cy="55" r="3.1" fill="#555"/>
  <circle cx="188" cy="55" r="3.1" fill="#555"/>
  <g fill="none" stroke="#a0a0a0" stroke-width="1.8" stroke-linecap="round" stroke-linejoin="round">
    <path d="M166 70 h8 v6 h-8 z M174 73 h5"/>
    <path d="M184 70 h8 v6 h-8 z M179 73 h5"/>
  </g>
  <circle cx="128" cy="85" r="6.5" fill="url(#greenGrad)" stroke="#758d22" stroke-width="1.5"/>
  <line x1="102" y1="104" x2="157" y2="104" stroke="#b2b2b2" stroke-width="4.5" stroke-linecap="round"/>
  <rect x="121" y="98" width="14" height="12" rx="4" fill="#e4ddce" stroke="#9a907f" stroke-width="1.5"/>
  <circle cx="128" cy="112" r="2.2" fill="#b2b2b2"/>
  <rect x="124" y="115" width="8" height="9" rx="1.3" fill="#f3f3f3" stroke="#aaa" stroke-width="1.2"/>
  <path d="M126 115 v-2.5 a2 2 0 0 1 4 0 v2.5" fill="none" stroke="#aaa" stroke-width="1.2"/>
  <line x1="102" y1="171" x2="157" y2="171" stroke="#b2b2b2" stroke-width="4.5" stroke-linecap="round"/>
  <rect x="121" y="165" width="14" height="12" rx="4" fill="#e4ddce" stroke="#9a907f" stroke-width="1.5"/>
  <circle cx="128" cy="179" r="2.2" fill="#b2b2b2"/>
  <rect x="124" y="182" width="8" height="9" rx="1.3" fill="#f3f3f3" stroke="#aaa" stroke-width="1.2"/>
  <path d="M126 182 v-2.5 a2 2 0 0 1 4 0 v2.5" fill="none" stroke="#aaa" stroke-width="1.2"/>
  <path d="M55 188 h16 v-5 h14 v5 h18 v61 H68 a13 13 0 0 1 -13 -13 Z" fill="url(#greenGrad)" stroke="#819a22" stroke-width="2"/>
  <g fill="#b8b8b8">
    <rect x="72" y="20" width="16" height="2" rx="1"/>
    <rect x="91" y="20" width="9" height="2" rx="1"/>
  </g>
</svg>
