<svg xmlns="http://www.w3.org/2000/svg" width="512" height="512" viewBox="0 0 768 768">
  <defs>
    <linearGradient id="panel" x1="0" y1="0" x2="0" y2="1"><stop offset="0" stop-color="#fbfbfb"/><stop offset="1" stop-color="#e9eaec"/></linearGradient>
    <linearGradient id="panelInner" x1="0" y1="0" x2="0" y2="1"><stop offset="0" stop-color="#fefefe"/><stop offset="1" stop-color="#eceef0"/></linearGradient>
    <linearGradient id="screen" x1="0" y1="0" x2="0" y2="1"><stop offset="0" stop-color="#d5f048"/><stop offset="1" stop-color="#b8df1f"/></linearGradient>
    <linearGradient id="greenFlap" x1="0" y1="0" x2="1" y2="1"><stop offset="0" stop-color="#d6fb29"/><stop offset="1" stop-color="#a8df00"/></linearGradient>
    <linearGradient id="seal" x1="0" y1="0" x2="1" y2="1"><stop offset="0" stop-color="#ffc685"/><stop offset="1" stop-color="#df7c33"/></linearGradient>
    <linearGradient id="ring" x1="0" y1="0" x2="1" y2="1"><stop offset="0" stop-color="#e4cfb0"/><stop offset="1" stop-color="#caa77f"/></linearGradient>
    <filter id="shadow" x="-20%" y="-20%" width="140%" height="140%"><feDropShadow dx="0" dy="10" stdDeviation="12" flood-color="#000000" flood-opacity="0.18"/></filter>
  </defs>
  <g filter="url(#shadow)">
    <rect x="192" y="32" width="384" height="704" rx="44" fill="url(#panel)" stroke="#2d3338" stroke-width="6"/>
    <rect x="192" y="32" width="384" height="352" rx="44" fill="url(#panelInner)" stroke="#2d3338" stroke-width="6"/>
    <path d="M192 384 H576" stroke="#2d3338" stroke-width="6"/>
    <rect x="288" y="78" width="168" height="76" rx="8" fill="#d4d7db"/>
    <rect x="298" y="88" width="148" height="56" rx="5" fill="url(#screen)" stroke="#263429" stroke-width="4"/>
    <g fill="#18352c"><rect x="314" y="118" width="8" height="14" rx="2"/><rect x="327" y="108" width="8" height="24" rx="2"/><rect x="340" y="96" width="8" height="36" rx="2"/><rect x="353" y="86" width="8" height="46" rx="2"/><rect x="366" y="110" width="8" height="22" rx="2"/></g>
    <path d="M392 118 C402 118, 408 96, 418 96 C426 96, 430 114, 438 114" fill="none" stroke="#18352c" stroke-width="5" stroke-linecap="round"/>
    <text x="392" y="128" font-family="Arial, Helvetica, sans-serif" font-size="18" font-weight="700" fill="#18352c">kW</text>
    <circle cx="500" cy="102" r="38" fill="url(#ring)" stroke="#2d3338" stroke-width="5"/><circle cx="500" cy="102" r="22" fill="#1f2327"/><circle cx="492" cy="94" r="6" fill="#ffffff" opacity="0.85"/>
    <circle cx="384" cy="208" r="34" fill="#c9f11b" stroke="#2d3338" stroke-width="5"/><circle cx="372" cy="196" r="8" fill="#ffffff" opacity="0.28"/>
    <rect x="306" y="270" width="156" height="18" rx="8" fill="#cfd3d7" stroke="#9da5ac" stroke-width="3"/>
    <g transform="translate(384 279) rotate(34)"><rect x="-22" y="-26" width="44" height="52" rx="12" fill="url(#seal)" stroke="#944d1d" stroke-width="4"/><rect x="-18" y="12" width="36" height="16" rx="4" fill="#eceff2" stroke="#8f959c" stroke-width="3"/></g>
    <rect x="306" y="486" width="156" height="18" rx="8" fill="#cfd3d7" stroke="#9da5ac" stroke-width="3"/>
    <g transform="translate(384 495) rotate(34)"><rect x="-22" y="-26" width="44" height="52" rx="12" fill="url(#seal)" stroke="#944d1d" stroke-width="4"/><rect x="-18" y="12" width="36" height="16" rx="4" fill="#eceff2" stroke="#8f959c" stroke-width="3"/></g>
    <path d="M194 530 H232 Q240 530 240 522 V506 Q240 498 248 498 H278 Q286 498 286 506 V530 H300 Q314 530 314 544 V736 H238 Q194 736 194 692 Z" fill="url(#greenFlap)" stroke="#6d9700" stroke-width="5"/>
    <path d="M208 566 C216 550, 228 540, 240 536" fill="none" stroke="#ffffff" stroke-width="8" opacity="0.24" stroke-linecap="round"/>
  </g>
</svg>
